<?xml version="1.0" encoding="UTF-8"?>
<!-- Generated by Pixelmator Pro 4.0 -->
<svg width="1024" height="1024" viewBox="0 0 1024 1024" xmlns="http://www.w3.org/2000/svg">
    <path id="Shape" fill="#141414" fill-rule="evenodd" stroke="none" d="M 0 1024 L 1024 1024 L 1024 0 L 0 0 Z"/>
    <path id="Rectangle" fill="#ffffff" fill-rule="evenodd" stroke="none" d="M 475 359 L 642 359 L 642 338 L 475 338 Z"/>
    <g id="Group">
        <path id="Path" fill="#ffffff" fill-rule="evenodd" stroke="none" d="M 501.685272 669.139343 L 501.90329 669.003052 L 419.32016 525.913452 C 407.860809 508.39917 401.76947 487.917847 401.795105 466.987793 C 401.795105 446.437439 407.573181 427.195251 417.603088 410.787659 L 249.356995 465.052673 L 512.532776 902.06189 L 575.928284 796.529968 L 501.685272 669.139343 Z M 643.166809 247.938049 L 510.979248 358.403198 L 511.333588 358.403198 C 571.812805 358.403198 620.817566 407.026428 620.817566 466.987793 C 620.817566 488.628418 614.412598 508.797241 603.374268 525.749878 L 525.288208 661.371582 L 590.182739 772.763428 L 775 465.052673 L 643.357605 247.938049 L 643.166809 247.938049 Z M 455.106171 373.802429 L 455.133453 373.802429 L 605.418396 247.938049 L 382.416687 247.938049 L 269.362274 432.428223 L 455.106171 373.802429 Z"/>
        <path id="Circle" fill="#ffffff" fill-rule="evenodd" stroke="none" d="M 852 293.5 C 852 256.773071 699.552979 227 511.5 227 C 323.447021 227 171 256.773071 171 293.5 C 171 330.226929 323.447021 360 511.5 360 C 699.552979 360 852 330.226929 852 293.5 Z"/>
        <path id="path1" fill="#ffffff" fill-rule="evenodd" stroke="none" d="M 432.321106 381.014282 L 540.765381 349.252136 L 528.678894 307.985718 L 420.234619 339.747864 Z"/>
        <path id="Rounded-Rectangle" fill="#ffffff" fill-rule="evenodd" stroke="none" d="M 358 258 C 358 297.212219 389.787781 329 429 329 L 594 329 C 633.212219 329 665 297.212219 665 258 L 665 194 C 665 154.787781 633.212219 123 594 123 L 429 123 C 389.787781 123 358 154.787781 358 194 Z"/>
    </g>
</svg>
